<?xml version="1.0" standalone="no"?>
<!DOCTYPE svg PUBLIC "-//W3C//DTD SVG 20010904//EN"
 "http://www.w3.org/TR/2001/REC-SVG-20010904/DTD/svg10.dtd">
<svg version="1.0" xmlns="http://www.w3.org/2000/svg"
 width="2560.000000pt" height="3000.000000pt" viewBox="0 0 2560.000000 2560.000000"
 preserveAspectRatio="xMidYMid meet">





<g transform="translate(0.000000,2560.000000) scale(0.100000,-0.100000)"
fill="#000000" stroke="none">
<path d="M5219 21235 c0 0 -3 -13 -5 -28 -3 -16 -1 -26 4 -23 5 3 15 -19 22
-49 7 -30 17 -55 22 -55 4 0 8 -5 8 -12 0 -11 30 -81 52 -122 5 -10 11 -28 14
-39 2 -12 15 -44 29 -73 14 -28 25 -56 25 -62 0 -7 5 -12 11 -12 6 0 9 -6 6
-14 -3 -7 0 -19 6 -25 6 -6 8 -11 4 -11 -4 0 -1 -13 7 -29 9 -16 12 -31 9 -35
-4 -3 -1 -6 6 -6 7 0 9 -4 6 -10 -3 -5 -1 -10 4 -10 6 0 10 -3 9 -7 -1 -5 3
-19 9 -33 13 -28 37 -92 39 -100 2 -13 33 -76 40 -83 4 -4 9 -13 10 -20 1 -7
10 -30 20 -52 10 -22 17 -44 16 -49 -2 -4 3 -15 10 -23 6 -8 12 -24 13 -35 1
-11 8 -24 16 -29 8 -5 10 -9 5 -9 -5 0 -2 -8 7 -18 9 -10 18 -27 20 -38 5 -27
16 -54 33 -87 7 -16 14 -35 14 -43 0 -8 5 -14 11 -14 5 0 8 -4 5 -9 -5 -7 14
-51 38 -90 5 -8 10 -28 12 -44 1 -16 6 -32 12 -36 5 -3 15 -24 22 -46 17 -53
43 -109 53 -113 4 -2 7 -14 7 -26 0 -12 13 -48 29 -79 16 -31 27 -57 25 -57
-3 0 1 -10 8 -22 7 -13 11 -29 9 -37 -1 -7 2 -10 8 -6 7 3 11 -2 11 -14 0 -11
9 -35 19 -53 11 -17 18 -35 15 -40 -3 -4 -1 -8 5 -8 5 0 12 -15 16 -32 9 -46
26 -88 35 -88 5 0 12 -15 16 -32 3 -18 14 -44 23 -57 9 -14 15 -25 13 -26 -2
0 -1 -8 2 -17 3 -10 9 -26 12 -35 3 -10 5 -20 4 -22 -1 -2 2 -7 7 -10 5 -3 24
-46 43 -96 19 -49 37 -92 40 -95 7 -6 31 -68 37 -97 3 -13 9 -23 13 -23 4 0
13 -21 20 -47 7 -27 22 -60 32 -75 10 -14 18 -36 18 -47 0 -12 5 -21 10 -21 6
0 10 -8 10 -17 0 -10 7 -31 15 -47 8 -15 15 -35 15 -42 0 -8 5 -14 11 -14 5 0
7 -5 4 -11 -4 -5 0 -18 8 -27 8 -9 18 -34 21 -55 4 -21 11 -35 17 -32 5 4 9
-3 9 -14 0 -11 5 -23 10 -26 6 -4 8 -10 5 -15 -3 -5 3 -24 14 -43 11 -19 17
-38 14 -41 -4 -3 -1 -6 5 -6 6 0 14 -16 18 -35 3 -19 10 -38 15 -41 5 -3 9
-16 9 -30 0 -13 3 -24 8 -24 4 0 14 -15 22 -32 15 -35 17 -40 19 -62 0 -8 8
-21 16 -30 9 -8 14 -19 13 -23 -1 -4 6 -26 16 -48 54 -122 60 -136 61 -152 0
-6 8 -20 18 -31 10 -11 17 -23 15 -28 -1 -5 6 -33 17 -61 13 -37 22 -49 28
-40 6 8 7 7 3 -5 -5 -16 18 -83 45 -131 5 -10 7 -22 4 -26 -3 -5 2 -12 11 -15
9 -4 14 -9 11 -13 -4 -3 -1 -15 5 -27 7 -11 11 -24 10 -28 -1 -5 2 -8 7 -8 5
0 14 -22 21 -50 7 -27 16 -50 21 -50 5 0 8 -3 8 -7 -1 -5 0 -11 1 -15 1 -5 3
-12 4 -16 1 -8 24 -57 53 -115 8 -15 12 -31 9 -36 -3 -5 1 -14 9 -21 8 -7 15
-19 15 -27 0 -8 5 -24 12 -36 7 -12 13 -26 14 -32 6 -24 30 -80 36 -85 4 -3 9
-15 11 -27 1 -12 9 -28 16 -37 7 -9 10 -16 6 -16 -4 0 0 -11 9 -25 9 -14 14
-30 11 -35 -3 -6 -2 -10 4 -10 5 0 15 -17 21 -37 7 -21 18 -47 25 -58 6 -11
15 -33 19 -50 4 -16 11 -32 16 -35 5 -3 11 -18 14 -34 3 -15 10 -34 17 -42 6
-8 13 -22 14 -32 1 -9 10 -35 19 -57 10 -22 19 -44 21 -50 1 -5 7 -23 13 -38
7 -16 12 -32 12 -37 0 -5 4 -10 10 -12 5 -2 11 -12 13 -23 2 -11 10 -33 17
-50 7 -16 14 -32 15 -35 1 -3 10 -23 20 -45 10 -22 20 -49 22 -60 2 -11 9 -24
16 -30 7 -5 11 -20 9 -32 -2 -13 1 -23 6 -23 5 0 15 -15 22 -32 7 -18 23 -56
36 -85 13 -28 24 -57 24 -63 0 -7 11 -35 25 -62 14 -27 23 -53 20 -58 -3 -4 2
-10 10 -14 8 -3 15 -14 15 -25 0 -11 8 -34 17 -53 31 -61 33 -68 33 -87 0 -10
7 -24 15 -31 9 -7 14 -19 11 -26 -3 -7 2 -18 9 -24 8 -7 13 -16 10 -20 -3 -5
-1 -11 5 -15 5 -3 10 -13 10 -22 0 -9 8 -22 18 -29 10 -8 12 -13 5 -14 -9 0
-7 -10 6 -31 11 -18 17 -38 14 -45 -3 -8 1 -14 9 -14 7 0 14 -9 15 -20 1 -11
9 -35 17 -52 9 -17 16 -37 16 -44 0 -7 7 -19 15 -28 9 -8 15 -17 15 -18 -3 -6
13 -63 19 -68 3 -3 12 -23 20 -45 14 -40 29 -75 81 -190 15 -33 31 -76 35 -95
4 -19 12 -38 18 -42 6 -3 11 -14 12 -25 1 -10 9 -34 18 -53 8 -19 15 -39 15
-44 0 -5 4 -12 9 -15 15 -11 31 -48 38 -85 4 -20 11 -36 15 -36 7 0 35 -80 32
-92 -1 -5 2 -8 8 -8 5 0 10 -5 10 -10 0 -6 10 -32 21 -58 45 -99 51 -115 53
-126 1 -6 10 -27 20 -46 9 -19 24 -55 32 -80 8 -25 18 -52 21 -60 3 -8 5 -18
5 -22 -1 -5 2 -8 7 -8 5 0 12 -13 16 -30 4 -16 11 -30 16 -30 5 0 9 -9 9 -20
0 -25 32 -100 42 -100 5 0 8 -8 8 -18 0 -10 6 -24 13 -31 9 -10 9 -12 0 -7 -8
4 -7 -2 2 -21 8 -15 15 -34 15 -41 0 -7 5 -10 10 -7 6 3 10 -3 10 -14 0 -11
14 -50 30 -86 17 -36 30 -70 30 -74 0 -5 6 -22 14 -38 34 -69 59 -128 59 -140
0 -7 3 -13 7 -13 4 0 13 -19 20 -42 8 -24 25 -68 39 -98 14 -30 24 -59 23 -63
-1 -4 9 -28 23 -53 14 -25 23 -50 20 -55 -4 -5 -2 -9 3 -9 9 0 32 -48 36 -75
2 -11 9 -27 37 -92 11 -23 19 -47 19 -52 0 -6 5 -11 11 -11 5 0 8 -4 4 -9 -6
-10 14 -62 29 -72 5 -4 5 -12 2 -18 -4 -6 -2 -11 3 -11 6 0 11 -4 11 -9 0 -5
8 -26 17 -47 10 -22 18 -44 18 -50 0 -6 5 -18 11 -25 6 -8 19 -36 30 -64 10
-27 23 -53 28 -57 8 -5 7 -8 -1 -8 -6 0 1 -24 18 -57 16 -31 29 -65 29 -75 0
-10 4 -18 9 -18 5 0 15 -20 22 -45 8 -26 19 -45 27 -45 12 0 12 -3 2 -15 -10
-12 -10 -15 0 -15 8 0 11 -3 7 -6 -3 -3 7 -29 22 -58 15 -28 26 -57 24 -63 -3
-7 4 -25 15 -40 11 -16 20 -30 20 -33 1 -12 14 -47 26 -70 7 -14 16 -37 20
-52 3 -16 11 -28 16 -28 5 0 7 -6 4 -14 -3 -7 2 -20 10 -29 9 -9 13 -23 10
-31 -3 -9 -1 -16 5 -16 6 0 11 -9 11 -19 0 -11 5 -23 10 -26 6 -3 10 -14 10
-24 0 -10 7 -24 15 -31 8 -7 14 -18 13 -24 -2 -11 20 -65 48 -118 9 -16 12
-28 8 -28 -4 0 0 -8 8 -17 8 -10 30 -58 48 -108 19 -49 37 -92 40 -95 3 -3 7
-14 8 -25 2 -11 8 -24 13 -29 5 -6 9 -20 9 -33 0 -13 5 -23 11 -23 5 0 8 -4 4
-9 -3 -6 1 -13 9 -18 15 -8 16 -11 16 -42 0 -11 7 -26 15 -35 9 -8 15 -19 14
-23 -1 -4 7 -28 18 -53 11 -25 26 -63 33 -85 7 -22 18 -49 23 -60 6 -11 12
-22 12 -25 2 -16 31 -70 38 -70 5 0 6 -4 2 -9 -6 -11 26 -91 37 -91 7 0 23
-59 20 -76 -1 -6 7 -19 17 -28 11 -10 17 -23 15 -30 -3 -7 2 -19 11 -26 8 -7
15 -18 15 -24 0 -7 9 -30 19 -51 10 -22 17 -44 14 -50 -2 -7 3 -18 11 -25 9
-7 13 -16 10 -21 -3 -5 0 -9 5 -9 6 0 11 -7 11 -16 0 -8 9 -36 21 -62 11 -26
25 -58 31 -72 6 -14 17 -37 25 -53 8 -15 11 -27 7 -27 -4 0 1 -8 10 -19 9 -10
16 -22 14 -27 -5 -14 24 -94 34 -94 4 0 8 -8 8 -17 0 -10 9 -33 20 -51 11 -17
17 -32 14 -32 -4 0 -2 -6 4 -12 5 -7 13 -28 17 -46 3 -17 11 -32 16 -32 6 0 8
-4 5 -9 -3 -5 1 -14 9 -21 9 -7 13 -21 10 -31 -4 -11 -2 -19 4 -19 6 0 15 -18
21 -40 6 -22 19 -55 29 -73 10 -17 27 -57 37 -87 10 -30 25 -63 33 -72 8 -10
11 -18 7 -18 -3 0 5 -23 19 -50 14 -28 23 -55 20 -60 -3 -4 0 -10 5 -12 6 -2
12 -10 14 -18 4 -22 15 -47 47 -117 16 -34 29 -69 29 -77 0 -9 4 -16 9 -16 5
0 12 -16 15 -36 4 -19 18 -55 32 -79 13 -24 24 -49 24 -54 0 -6 14 -41 32 -78
17 -37 31 -73 31 -80 0 -7 4 -13 9 -13 4 0 8 -4 8 -9 0 -5 5 -22 12 -38 6 -15
12 -33 13 -39 2 -6 10 -27 18 -45 38 -84 57 -133 57 -145 0 -8 4 -14 10 -14 5
0 13 -18 16 -40 4 -22 10 -40 15 -40 4 0 11 -16 15 -35 4 -21 12 -35 21 -35
10 0 13 -6 9 -16 -4 -9 5 -36 18 -60 15 -27 20 -44 13 -44 -7 -1 -5 -6 4 -13
9 -7 14 -18 12 -24 -3 -7 0 -13 6 -13 6 0 11 -7 11 -15 0 -9 8 -30 17 -48 9
-18 16 -35 15 -40 -1 -4 8 -24 21 -45 13 -20 29 -58 37 -84 7 -27 17 -48 21
-48 5 0 9 -11 9 -24 0 -12 11 -44 24 -69 14 -25 22 -47 20 -50 -2 -2 2 -10 11
-17 8 -7 15 -19 15 -27 0 -16 21 -68 46 -115 8 -15 15 -30 15 -33 -1 -9 11
-39 27 -75 9 -19 17 -42 17 -50 1 -8 19 -51 40 -95 21 -44 38 -84 36 -89 -1
-4 5 -19 14 -32 8 -13 15 -30 15 -39 0 -8 5 -15 12 -15 6 0 9 -3 5 -6 -3 -4 3
-24 13 -45 11 -21 20 -45 20 -52 0 -8 7 -20 15 -27 8 -7 15 -20 15 -29 0 -9
14 -44 30 -79 17 -34 28 -67 25 -72 -3 -6 -1 -10 4 -10 6 0 11 -6 11 -14 0 -7
16 -49 35 -91 20 -43 34 -84 31 -92 -3 -7 -2 -13 3 -13 7 0 54 -94 55 -112 1
-3 4 -10 9 -14 4 -4 7 -16 7 -26 0 -11 4 -17 8 -14 5 3 9 -9 10 -27 0 -17 6
-33 11 -35 6 -2 11 -8 11 -13 0 -4 11 -33 25 -64 14 -30 28 -68 31 -85 4 -16
10 -30 14 -30 4 0 11 -16 14 -35 4 -19 11 -35 15 -35 5 0 12 -12 16 -27 3 -16
15 -47 26 -70 11 -23 18 -47 14 -53 -3 -5 1 -10 10 -10 9 0 14 -4 11 -9 -3 -5
4 -28 17 -53 12 -24 23 -50 25 -58 2 -8 12 -32 21 -55 21 -45 31 -76 30 -89 0
-5 4 -12 10 -16 6 -3 13 -17 16 -30 2 -12 12 -31 21 -41 10 -11 14 -19 10 -19
-3 0 1 -14 9 -30 9 -17 13 -35 10 -40 -3 -6 -2 -10 4 -10 5 0 12 -10 16 -22 3
-13 14 -41 24 -63 37 -80 44 -100 43 -108 -1 -4 4 -15 13 -23 8 -9 15 -22 15
-30 0 -8 4 -22 9 -32 26 -52 44 -98 42 -109 -1 -7 3 -13 9 -13 5 0 10 -6 10
-13 0 -7 9 -32 20 -55 11 -22 20 -46 20 -53 0 -6 14 -40 31 -75 16 -35 27 -69
24 -74 -3 -6 -2 -10 2 -10 12 0 44 -61 46 -87 1 -16 10 -23 35 -28 18 -3 42
-3 54 1 13 4 18 2 14 -4 -4 -7 3 -8 21 -3 16 5 87 7 158 6 126 -2 131 -1 153
22 12 13 22 33 22 43 0 10 5 22 11 25 6 4 8 13 5 21 -3 8 -1 14 4 14 5 0 14
16 21 35 7 19 17 35 21 35 4 0 8 8 8 18 0 10 3 22 8 26 4 4 7 11 8 14 2 14 17
48 45 105 16 31 29 60 30 65 4 19 12 40 30 77 10 22 19 45 19 51 0 6 7 17 15
24 10 8 12 17 6 23 -5 5 -2 16 10 28 10 10 19 26 19 34 0 8 8 15 18 15 11 0
13 3 5 8 -8 5 -2 27 22 77 42 91 49 107 46 123 -1 7 5 15 14 18 8 3 15 17 15
30 0 13 4 24 10 24 5 0 9 3 9 7 -1 5 0 11 1 16 4 12 7 26 9 38 0 5 6 7 11 4 6
-3 10 3 10 14 0 10 6 22 13 24 9 4 9 6 -1 6 -10 1 -10 5 0 24 7 12 18 25 23
29 6 4 7 8 2 8 -4 0 -1 10 8 23 8 13 12 27 8 30 -3 4 0 7 7 7 7 0 11 3 7 6 -3
3 3 23 14 42 10 20 19 42 19 49 0 7 5 13 11 13 6 0 9 7 5 15 -3 8 -2 15 2 15
5 0 14 17 21 38 18 50 41 104 52 122 5 8 16 31 24 50 9 19 22 49 29 65 8 17
20 46 29 65 8 19 21 50 28 68 8 17 18 32 22 32 5 0 5 4 2 10 -3 5 0 20 7 32 7
13 13 25 13 28 1 3 7 18 13 33 7 16 12 33 12 38 0 5 5 9 11 9 5 0 7 5 4 10 -3
6 -1 10 6 10 7 0 9 3 6 7 -4 3 -3 11 2 17 5 6 26 54 47 106 21 52 40 97 44
100 14 11 47 90 37 90 -5 0 -3 8 5 18 20 22 48 89 40 96 -3 3 0 6 7 6 7 0 9 5
6 10 -3 6 0 12 7 15 8 3 15 15 15 28 1 12 7 23 13 25 5 2 10 15 10 28 0 13 5
24 12 24 6 0 9 3 5 6 -3 3 3 23 14 42 10 20 19 40 19 45 0 4 16 41 35 82 19
41 37 86 41 100 3 14 10 25 15 25 5 0 9 5 9 11 0 5 11 35 25 65 14 30 25 61
25 68 0 8 5 16 11 18 5 2 11 11 12 20 2 9 8 22 15 30 6 8 9 18 5 21 -3 4 1 15
10 24 8 10 19 32 22 48 4 17 25 66 46 110 21 44 38 82 37 85 0 3 10 25 22 50
13 25 25 52 26 60 2 8 7 16 13 18 5 2 7 10 4 19 -3 8 -2 18 3 22 16 11 34 50
34 71 0 12 5 18 10 15 6 -3 10 0 10 9 0 8 11 37 26 65 14 28 22 56 19 61 -3 6
-1 10 4 10 6 0 11 7 11 15 0 8 5 15 11 15 5 0 8 4 4 9 -3 5 -1 12 4 15 5 4 15
23 22 44 12 37 40 102 85 196 13 28 24 56 24 63 0 7 3 13 8 13 6 0 27 51 35
86 2 7 8 18 14 26 6 7 15 26 18 41 4 15 11 30 16 33 5 3 9 16 9 30 0 14 6 27
13 30 8 3 14 10 14 17 0 21 76 187 85 187 5 0 7 4 4 9 -3 5 5 29 19 55 13 25
22 46 18 46 -3 0 0 6 6 13 6 8 9 16 6 19 -3 3 1 11 10 18 8 7 15 21 15 31 0
11 4 19 9 19 5 0 7 10 3 22 -3 14 -2 19 7 14 7 -5 13 3 17 24 4 17 11 33 15
36 5 3 9 14 9 25 0 10 5 19 10 19 6 0 8 11 4 25 -5 18 -3 25 7 23 7 -2 17 12
23 32 6 19 19 49 28 66 10 17 14 34 11 37 -3 4 2 9 11 13 9 3 14 10 11 14 -3
4 2 20 9 36 8 16 16 36 18 44 2 8 5 17 9 20 5 5 42 80 44 90 3 10 28 66 47
102 11 21 17 42 14 47 -3 5 1 11 9 15 8 3 15 13 15 22 0 24 22 84 31 84 4 0
13 17 20 38 6 20 19 51 27 67 9 17 15 37 14 46 -2 9 4 22 13 29 8 7 15 19 15
26 0 8 5 14 11 14 5 0 8 4 4 10 -5 8 10 46 25 60 3 3 10 16 16 30 37 84 44
102 39 111 -4 5 -2 9 4 9 5 0 13 10 16 23 4 12 18 46 31 75 13 29 24 57 24 61
0 5 4 11 8 13 5 2 26 48 47 103 22 55 43 101 47 103 4 2 8 9 8 16 0 7 14 39
30 69 17 31 29 60 28 64 -1 5 5 22 14 38 8 17 19 41 23 55 4 14 16 38 27 53
11 15 18 34 15 41 -3 7 3 19 13 26 11 8 17 18 14 22 -3 5 -1 14 4 21 6 7 10
14 10 17 0 3 14 36 32 75 39 84 61 145 53 145 -4 0 0 6 9 13 9 6 21 30 28 52
7 22 18 49 24 60 7 11 21 43 31 70 11 28 22 52 25 55 3 3 14 25 24 50 10 25
22 53 27 62 5 10 9 25 9 33 0 8 4 15 8 15 5 0 15 19 22 43 8 23 18 45 23 48 4
3 10 19 11 35 2 16 9 28 16 26 6 -1 9 1 6 6 -3 5 11 39 30 77 19 37 33 74 30
82 -3 7 1 13 10 13 8 0 14 6 13 13 -2 12 4 30 42 112 10 22 28 63 39 90 12 28
31 70 42 95 11 25 26 59 33 75 8 17 26 57 40 90 15 33 29 65 30 70 11 40 19
55 26 55 5 0 9 6 9 14 0 16 41 119 50 126 4 3 10 18 14 33 4 15 10 26 14 23 4
-2 8 6 8 17 1 12 20 61 43 110 22 48 41 92 41 97 0 6 4 10 8 10 5 0 9 6 9 13
0 6 14 42 32 79 17 36 31 70 31 75 0 4 11 30 25 57 14 27 25 55 25 61 0 7 7
18 15 25 9 7 14 19 11 26 -3 7 2 15 10 18 8 3 14 15 14 26 0 12 20 63 44 113
37 80 54 116 61 137 7 21 33 81 66 155 5 11 21 50 37 88 16 37 32 64 37 60 4
-5 5 0 1 11 -4 12 0 24 11 35 10 9 19 27 21 40 1 14 10 33 19 43 9 10 13 18 8
18 -4 0 -2 7 5 15 7 8 9 15 5 15 -5 0 -1 8 7 18 8 9 14 27 13 40 -1 12 2 22 6
22 8 0 42 56 38 62 -4 6 64 143 72 146 5 2 6 8 3 13 -3 6 1 21 10 34 9 13 16
33 16 45 0 11 4 20 9 20 5 0 17 25 26 55 10 30 22 55 28 55 6 0 7 3 4 7 -4 3
0 17 9 31 8 13 13 26 10 30 -3 3 1 14 11 24 9 10 13 18 10 18 -4 0 2 15 13 33
11 17 20 40 20 50 0 9 5 17 10 17 6 0 10 6 10 13 0 8 6 27 14 43 7 16 20 44
27 62 8 17 16 32 19 32 3 0 6 8 7 19 1 10 13 42 27 71 14 30 26 59 26 66 0 7
6 19 13 26 7 7 20 34 27 60 8 26 18 44 22 42 4 -3 8 3 8 13 0 10 13 45 29 78
39 79 61 131 61 143 0 6 4 12 9 14 5 2 11 14 13 28 1 14 10 33 19 43 9 10 14
27 12 38 -3 10 0 19 6 19 6 0 11 9 11 20 0 11 5 20 10 20 6 0 10 9 10 20 0 11
5 20 12 20 6 0 9 3 6 6 -7 6 62 157 73 162 5 2 5 10 2 18 -3 8 0 14 7 14 6 0
10 6 7 13 -2 6 4 22 14 35 10 13 15 30 12 38 -3 8 -1 14 5 14 5 0 13 11 16 25
4 14 11 25 16 25 5 0 7 6 4 14 -3 8 -1 17 5 21 6 3 11 13 11 22 0 9 18 54 40
99 23 45 43 92 45 105 3 12 8 25 12 28 10 8 43 78 43 92 0 6 16 42 35 80 19
38 32 69 29 69 -4 0 0 10 8 23 8 12 32 63 53 112 21 50 42 92 46 95 6 4 20 45
24 70 0 3 9 20 18 38 10 17 16 32 13 32 -2 0 6 20 20 46 13 25 24 52 24 60 0
7 7 14 15 14 9 0 15 9 15 21 0 24 70 192 82 197 4 2 8 12 8 22 0 10 5 22 11
26 6 3 9 15 6 25 -3 11 -2 19 2 19 3 0 15 19 25 43 10 23 22 44 26 47 5 3 11
17 14 30 8 39 30 94 44 108 7 8 10 18 7 23 -4 5 -1 9 5 9 7 0 10 7 6 15 -3 8
-1 15 5 15 6 0 9 7 5 15 -3 8 -2 15 3 15 7 0 52 92 55 112 1 3 4 10 9 14 4 4
7 16 7 26 0 10 5 18 10 18 6 0 10 7 10 16 0 9 6 28 14 42 24 46 54 116 61 140
4 12 11 22 17 22 6 0 8 9 5 19 -3 12 1 22 9 25 8 3 14 14 14 24 0 10 4 22 8
28 5 5 15 28 22 52 7 23 17 42 22 42 4 0 8 5 8 11 0 6 16 45 35 86 19 41 35
79 35 84 0 4 9 25 19 46 11 21 21 45 23 53 2 8 9 21 16 28 7 8 10 18 7 23 -4
5 -1 9 4 9 6 0 11 5 11 11 0 9 21 60 50 124 15 31 33 79 34 88 1 4 8 12 16 17
8 5 12 10 7 10 -4 0 1 17 12 38 10 20 20 40 21 44 1 4 4 17 7 28 3 11 9 20 14
20 5 0 6 7 3 15 -4 8 -2 15 4 15 5 0 13 12 17 27 3 15 18 52 33 83 15 30 25
59 24 64 -2 4 3 13 11 20 7 6 20 31 27 55 8 24 20 45 27 48 7 3 10 9 7 14 -3
6 9 40 27 77 18 37 32 70 31 75 -1 4 7 24 18 44 11 21 20 43 20 49 0 6 7 17
15 24 8 7 15 21 15 31 0 11 5 19 12 19 6 0 8 3 5 6 -3 4 -2 15 4 26 6 11 12
29 14 40 3 12 10 25 17 30 7 4 9 8 3 8 -5 0 -3 6 6 13 9 7 19 33 23 59 4 25
13 49 21 51 7 3 16 21 20 39 4 18 11 35 14 38 10 7 41 76 41 90 0 6 7 18 15
26 8 8 12 21 9 29 -4 10 0 15 11 15 9 0 13 5 10 10 -4 6 3 31 14 55 12 25 21
49 21 55 0 5 5 10 10 10 6 0 10 8 10 18 0 22 27 79 41 87 5 4 7 11 3 16 -3 5
4 24 15 43 12 18 21 41 21 50 0 9 4 16 9 16 10 0 24 38 22 58 -1 6 3 12 9 12
5 0 10 5 10 11 0 5 11 35 25 65 14 30 25 59 25 64 0 6 5 10 10 10 6 0 10 8 10
18 0 10 3 22 7 26 4 4 9 19 11 34 2 14 8 32 14 40 19 22 57 110 50 116 -3 3
-1 6 4 6 12 0 38 69 30 77 -3 4 2 12 12 19 10 7 24 32 31 55 7 23 20 53 28 66
14 21 14 23 -2 29 -12 5 -6536 9 -14866 9z m3021 -1049 c30 2 67 6 81 8 15 3
30 2 33 -1 8 -9 46 -11 46 -3 0 3 12 5 28 4 15 -1 27 -3 27 -4 0 0 26 -2 57
-4 31 -1 56 0 54 3 -2 3 73 5 167 3 222 -3 275 -3 315 1 17 2 32 -1 32 -5 0
-5 12 -5 27 -2 15 4 33 7 40 6 26 -3 149 -2 181 1 17 2 32 0 32 -4 0 -4 13 -4
29 1 16 4 32 6 34 3 9 -8 116 -10 111 -1 -7 11 7 10 26 -2 9 -6 17 -5 22 3 5
8 8 8 8 1 0 -6 12 -10 28 -8 44 5 115 5 145 1 15 -2 27 -1 27 2 0 4 12 6 28 5
15 -1 27 -3 27 -4 0 0 26 -2 57 -4 31 -1 56 0 53 3 -4 8 53 5 101 -3 19 -4 34
-3 34 1 0 5 17 7 38 5 45 -3 125 -3 169 1 18 2 35 -2 38 -7 3 -8 7 -8 10 0 5
10 54 10 128 -1 28 -4 37 -2 31 6 -5 9 -2 10 12 4 10 -4 39 -6 64 -5 25 1 63
2 85 1 49 -2 50 -2 134 0 38 0 83 -2 101 -6 23 -5 30 -4 26 4 -9 14 0 14 25 1
13 -7 19 -7 19 -1 0 7 8 7 24 1 13 -5 26 -7 28 -5 5 5 98 7 131 2 15 -2 27 -1
27 2 0 7 84 5 133 -4 15 -2 27 -1 27 3 0 6 65 6 200 2 8 -1 71 -1 140 0 69 0
133 0 143 0 9 0 48 0 86 1 38 0 83 -2 101 -6 25 -6 31 -4 25 6 -6 9 -3 10 11
4 25 -10 67 -11 134 -4 30 3 59 4 65 1 14 -8 45 -10 45 -2 0 3 12 5 28 4 15
-1 27 -3 27 -4 0 0 26 -2 57 -4 31 -1 56 0 54 3 -2 3 37 5 87 4 119 -4 119 -4
208 -2 42 1 86 -2 97 -6 14 -4 22 -2 22 5 0 6 4 9 9 6 10 -6 146 -8 199 -3 17
2 32 0 32 -4 0 -4 16 -3 35 1 19 4 35 5 35 1 0 -3 25 -6 55 -7 33 0 52 3 48 9
-4 7 1 7 13 3 29 -12 118 -14 125 -3 4 5 15 5 28 -2 13 -8 21 -8 21 -2 0 7 8
7 24 1 13 -5 26 -7 28 -5 5 5 98 7 131 2 15 -2 27 -1 27 3 0 7 68 4 133 -5 21
-3 36 -2 34 2 -3 5 11 7 31 5 41 -3 120 -2 169 2 18 1 35 -3 38 -8 3 -8 7 -8
10 0 3 5 20 9 38 7 41 -4 153 -4 195 0 17 2 32 0 32 -4 0 -4 16 -3 35 1 19 4
35 5 35 1 0 -4 23 -5 50 -1 28 4 54 2 57 -3 3 -5 9 -5 15 1 7 7 19 7 33 2 13
-5 25 -6 29 -3 7 8 151 6 176 -2 11 -3 20 -2 20 3 0 6 17 8 38 6 45 -6 144 -5
150 1 3 2 13 0 23 -6 14 -7 19 -6 19 2 0 8 4 8 15 -1 8 -7 15 -8 15 -3 0 9 51
9 123 -2 20 -3 37 -2 37 2 0 6 85 7 200 2 8 0 40 0 70 1 30 0 84 0 120 0 36 0
80 1 98 3 17 2 32 0 32 -4 0 -4 13 -4 29 1 16 4 32 5 36 2 7 -7 144 -4 157 4
4 3 14 2 20 -2 16 -10 48 -13 48 -4 0 3 12 5 28 4 15 -1 27 -3 27 -4 0 0 26
-2 57 -4 31 -1 55 1 53 5 -3 4 12 5 33 3 38 -5 111 -5 169 0 18 1 35 -3 38 -8
3 -8 7 -8 10 0 5 10 54 10 128 -1 21 -3 37 -1 37 5 0 5 6 8 13 6 6 -3 38 -7
70 -10 44 -5 57 -3 51 6 -5 8 -2 9 10 5 18 -7 147 -10 204 -4 17 2 32 0 32 -4
0 -4 13 -4 29 1 16 4 32 6 34 3 9 -8 116 -10 111 -1 -7 11 7 10 26 -2 9 -6 17
-5 22 3 6 9 8 9 8 1 0 -8 11 -9 37 -4 22 5 42 5 49 0 6 -6 14 -7 17 -3 9 8
209 7 236 -2 12 -3 21 -3 21 2 0 5 17 7 38 5 41 -3 120 -2 169 2 18 1 35 -3
38 -8 3 -8 7 -8 10 0 5 10 54 10 128 -1 21 -3 36 -2 34 2 -3 5 41 7 96 5 56
-1 145 -1 197 -1 169 3 162 5 135 -49 -10 -20 -19 -41 -20 -47 -2 -16 -26 -73
-84 -196 -17 -37 -31 -72 -31 -78 0 -6 -5 -11 -11 -11 -6 0 -9 -6 -6 -13 3 -7
-1 -21 -9 -32 -8 -10 -14 -27 -14 -37 0 -10 -4 -18 -8 -18 -5 0 -15 -18 -22
-40 -7 -22 -17 -40 -22 -40 -4 0 -8 -11 -8 -24 0 -14 -7 -31 -15 -40 -9 -8
-16 -18 -15 -21 1 -24 -3 -34 -19 -52 -11 -12 -17 -23 -14 -26 9 -10 -8 -47
-19 -41 -7 5 -9 1 -5 -9 3 -9 0 -22 -7 -29 -7 -7 -11 -21 -8 -32 3 -11 1 -17
-5 -13 -5 3 -15 -11 -23 -31 -7 -20 -23 -59 -35 -87 -12 -27 -31 -71 -41 -97
-10 -27 -22 -48 -26 -48 -5 0 -8 -6 -8 -14 0 -8 -13 -41 -30 -74 -16 -34 -30
-67 -30 -74 -1 -7 -9 -31 -20 -53 -11 -22 -19 -44 -20 -49 0 -6 -10 -20 -21
-32 -12 -13 -21 -34 -21 -48 0 -15 -4 -26 -8 -26 -8 0 -25 -49 -22 -63 1 -4
-5 -10 -13 -13 -8 -3 -13 -10 -10 -14 3 -5 -4 -25 -15 -45 -11 -20 -18 -40
-15 -45 3 -4 -1 -10 -9 -13 -8 -3 -17 -20 -21 -37 -4 -17 -13 -43 -21 -58 -8
-15 -14 -33 -14 -39 0 -7 -4 -13 -9 -13 -4 0 -19 -28 -31 -62 -13 -35 -40
-100 -61 -145 -22 -45 -39 -88 -39 -96 0 -7 -9 -23 -19 -34 -11 -12 -18 -23
-16 -25 3 -2 -4 -22 -15 -43 -11 -21 -17 -42 -14 -47 3 -4 -2 -11 -10 -14 -9
-3 -16 -14 -17 -23 0 -27 -54 -152 -62 -145 -4 4 -7 -1 -7 -12 0 -10 -7 -32
-16 -49 -25 -47 -96 -219 -97 -232 0 -7 -4 -13 -9 -13 -5 0 -6 -4 -3 -10 3 -5
1 -10 -6 -10 -7 0 -9 -3 -6 -6 4 -4 -3 -20 -14 -35 -11 -16 -17 -29 -13 -29 3
0 2 -6 -4 -12 -6 -7 -10 -17 -10 -21 0 -4 -16 -40 -35 -80 -19 -40 -49 -108
-68 -152 -18 -44 -36 -84 -41 -90 -4 -5 -8 -17 -8 -27 0 -10 -5 -18 -10 -18
-6 0 -9 -3 -9 -7 3 -12 -22 -73 -29 -73 -4 0 -8 -12 -9 -27 0 -15 -6 -29 -12
-31 -6 -2 -11 -9 -11 -16 0 -7 -11 -34 -25 -60 -13 -25 -25 -48 -25 -51 0 -3
0 -12 0 -21 0 -8 -4 -12 -10 -9 -6 3 -10 -4 -10 -18 0 -14 -7 -30 -15 -37 -9
-7 -13 -15 -11 -18 3 -2 0 -14 -6 -26 -7 -11 -13 -23 -13 -26 -9 -36 -18 -59
-24 -56 -3 2 -7 -6 -7 -19 -1 -13 -11 -37 -23 -53 -12 -17 -21 -37 -21 -46 0
-9 -3 -16 -8 -16 -4 0 -16 -27 -26 -61 -11 -33 -23 -62 -28 -65 -4 -3 -8 -12
-8 -20 0 -9 -7 -22 -16 -31 -8 -9 -13 -21 -10 -28 3 -8 -1 -16 -9 -18 -7 -3
-16 -21 -20 -39 -7 -32 -35 -98 -45 -108 -10 -10 -30 -50 -30 -60 0 -6 -11
-35 -24 -63 -13 -29 -30 -67 -37 -84 -8 -18 -18 -33 -23 -33 -4 0 -6 -9 -3
-21 3 -12 0 -22 -9 -26 -8 -3 -13 -12 -10 -19 3 -8 1 -14 -4 -14 -6 0 -10 -7
-10 -15 0 -9 -7 -26 -15 -38 -8 -13 -16 -33 -18 -46 -2 -12 -10 -27 -18 -32
-8 -5 -10 -9 -5 -9 5 0 2 -7 -5 -16 -7 -9 -14 -21 -15 -28 -1 -6 -10 -29 -19
-51 -10 -22 -18 -43 -17 -47 1 -3 -5 -11 -13 -18 -7 -6 -11 -18 -8 -26 3 -8 0
-14 -7 -14 -6 0 -8 -4 -5 -10 3 -5 2 -10 -3 -10 -6 0 -16 -20 -23 -44 -7 -25
-17 -42 -23 -39 -5 4 -7 0 -4 -9 4 -8 -7 -41 -23 -74 -16 -32 -29 -65 -29 -71
0 -7 -4 -13 -9 -13 -10 0 -24 -38 -22 -57 1 -7 -3 -13 -9 -13 -5 0 -10 -4 -10
-9 0 -5 -8 -26 -17 -47 -9 -22 -17 -41 -18 -44 -1 -3 -7 -18 -14 -35 -7 -16
-12 -32 -12 -35 0 -3 -7 -13 -16 -22 -8 -10 -13 -24 -10 -32 3 -8 3 -16 -1
-18 -10 -4 -52 -87 -52 -103 0 -7 -7 -18 -15 -25 -9 -7 -14 -19 -11 -27 3 -7
1 -13 -4 -13 -6 0 -10 -11 -10 -24 0 -13 -7 -29 -15 -36 -9 -7 -14 -19 -11
-27 3 -7 -1 -13 -10 -13 -8 0 -13 -4 -9 -9 3 -6 -3 -25 -13 -43 -10 -18 -22
-49 -26 -70 -3 -20 -13 -38 -20 -41 -7 -3 -16 -22 -20 -41 -4 -20 -11 -36 -17
-36 -6 0 -8 -4 -5 -9 3 -5 -1 -14 -8 -21 -8 -6 -18 -26 -21 -43 -4 -18 -15
-48 -25 -67 -29 -58 -60 -130 -59 -136 0 -4 -3 -10 -8 -13 -10 -8 -35 -71 -36
-93 -1 -10 -7 -18 -14 -18 -7 0 -12 -3 -11 -7 1 -9 -7 -33 -30 -83 -9 -19 -16
-38 -17 -41 0 -3 -10 -25 -21 -50 -24 -49 -46 -101 -46 -109 0 -3 -5 -14 -11
-25 -6 -11 -10 -25 -9 -31 1 -7 -4 -14 -13 -18 -8 -3 -15 -14 -15 -25 0 -11
-4 -23 -10 -26 -5 -3 -10 -17 -10 -31 0 -14 -6 -27 -14 -30 -8 -3 -17 -23 -21
-44 -4 -21 -13 -41 -21 -44 -7 -3 -11 -12 -8 -19 3 -8 -2 -22 -11 -31 -9 -9
-14 -20 -11 -25 3 -5 0 -14 -8 -20 -8 -7 -17 -27 -20 -46 -4 -19 -11 -35 -16
-35 -4 0 -11 -13 -15 -30 -4 -16 -11 -30 -16 -30 -5 0 -9 -8 -9 -18 0 -10 -11
-41 -25 -68 -14 -27 -25 -57 -25 -67 0 -10 -4 -16 -9 -13 -5 3 -11 -8 -15 -24
-3 -17 -6 -33 -7 -38 -1 -4 -10 -18 -20 -31 -11 -13 -19 -32 -19 -42 0 -9 -7
-24 -15 -33 -9 -8 -15 -19 -14 -23 2 -15 -13 -53 -22 -53 -5 0 -9 -7 -9 -17 0
-14 -64 -165 -91 -215 -5 -10 -9 -25 -9 -33 0 -8 -4 -15 -10 -15 -5 0 -10 -9
-10 -21 0 -13 -4 -18 -12 -13 -7 4 -8 3 -4 -5 4 -6 2 -19 -6 -28 -7 -9 -13
-24 -13 -33 0 -9 -6 -24 -13 -33 -8 -9 -15 -23 -16 -32 -1 -9 -9 -24 -17 -33
-8 -10 -15 -29 -17 -42 -1 -14 -9 -30 -18 -37 -9 -6 -13 -16 -10 -21 3 -5 -1
-15 -8 -22 -8 -6 -18 -26 -21 -43 -4 -18 -14 -40 -22 -49 -8 -9 -12 -21 -9
-26 3 -5 -1 -15 -9 -22 -8 -7 -15 -17 -15 -22 0 -11 -48 -133 -79 -201 -12
-25 -21 -50 -21 -55 0 -5 -7 -15 -15 -22 -9 -7 -13 -15 -10 -18 3 -3 1 -10 -4
-16 -5 -6 -14 -28 -20 -48 -7 -21 -17 -38 -23 -38 -6 0 -9 -3 -5 -6 3 -4 -3
-24 -14 -45 -11 -22 -16 -39 -12 -39 5 0 4 -4 -2 -8 -11 -8 -45 -72 -46 -87
-1 -5 -7 -21 -15 -35 -7 -14 -23 -50 -35 -80 -11 -30 -33 -78 -49 -107 -15
-29 -23 -54 -18 -55 5 -2 -1 -15 -14 -29 -13 -14 -24 -34 -26 -45 -5 -35 -8
-44 -20 -56 -7 -7 -12 -15 -12 -19 0 -4 -15 -41 -34 -81 -19 -40 -39 -92 -46
-116 -7 -23 -17 -42 -22 -42 -5 0 -6 -4 -3 -10 3 -5 1 -10 -4 -10 -6 0 -11
-12 -11 -26 0 -14 -4 -23 -10 -19 -5 3 -10 -2 -10 -13 0 -10 -3 -22 -7 -26 -5
-4 -8 -11 -9 -14 0 -4 -6 -20 -13 -37 -7 -16 -12 -31 -12 -32 0 -1 -18 -37
-39 -79 -22 -43 -37 -81 -34 -86 3 -4 0 -8 -5 -8 -6 0 -10 -3 -9 -7 3 -12 -14
-57 -24 -64 -5 -3 -10 -16 -11 -27 -1 -12 -5 -22 -9 -22 -4 0 -8 -4 -8 -9 0
-5 -10 -31 -22 -58 -12 -26 -22 -51 -22 -55 -1 -4 -7 -13 -13 -20 -7 -6 -13
-20 -13 -30 0 -10 -5 -18 -11 -18 -5 0 -7 -5 -3 -11 3 -6 2 -14 -4 -18 -7 -4
-13 -16 -15 -26 -2 -11 -9 -31 -17 -45 -8 -14 -13 -30 -12 -36 1 -6 -5 -17
-13 -24 -8 -7 -15 -23 -15 -36 0 -13 -5 -24 -11 -24 -5 0 -8 -4 -5 -8 3 -5 -6
-25 -20 -45 -14 -20 -21 -37 -17 -37 4 0 2 -4 -4 -8 -7 -4 -15 -19 -17 -32 -2
-14 -5 -27 -6 -30 -2 -3 -2 -9 -1 -13 1 -4 -5 -10 -13 -13 -8 -3 -12 -12 -9
-20 3 -8 0 -14 -6 -14 -6 0 -11 -9 -11 -20 0 -11 -4 -20 -9 -20 -8 0 -25 -56
-22 -73 0 -4 -4 -7 -10 -7 -5 0 -8 -4 -5 -9 3 -5 0 -14 -8 -20 -7 -6 -16 -24
-19 -39 -3 -15 -17 -44 -32 -66 -14 -21 -24 -41 -21 -44 3 -3 1 -11 -5 -19 -6
-7 -9 -13 -6 -13 4 0 -5 -22 -18 -49 -14 -27 -25 -54 -25 -60 0 -6 -4 -11 -10
-11 -5 0 -10 -8 -10 -17 0 -10 -7 -31 -15 -47 -8 -15 -15 -35 -15 -42 0 -8 -7
-17 -15 -20 -10 -4 -13 -13 -10 -25 4 -11 3 -19 -2 -19 -4 0 -13 -12 -20 -27
-6 -16 -19 -46 -29 -68 -9 -22 -18 -43 -18 -47 -1 -3 -4 -10 -8 -14 -5 -4 -8
-15 -8 -25 0 -10 -6 -24 -13 -31 -7 -7 -19 -33 -27 -58 -8 -25 -20 -51 -27
-58 -7 -7 -13 -20 -13 -28 0 -8 -5 -14 -11 -14 -5 0 -8 -4 -4 -10 6 -9 -54
-142 -66 -148 -4 -2 -5 -12 -2 -22 4 -13 0 -20 -9 -20 -8 0 -15 -7 -15 -15 0
-20 -55 -149 -67 -157 -6 -4 -7 -10 -4 -14 4 -4 -2 -20 -13 -35 -11 -16 -18
-32 -16 -37 3 -4 -1 -15 -8 -25 -11 -15 -15 -12 -35 35 -13 29 -23 59 -23 66
0 6 -4 12 -8 12 -4 0 -11 14 -14 32 -4 17 -14 38 -21 46 -8 7 -15 20 -15 28
-2 22 -3 25 -24 79 -10 28 -24 53 -29 57 -6 4 -7 8 -3 8 5 0 -1 15 -12 34 -12
18 -21 41 -21 50 0 9 -4 16 -10 16 -5 0 -10 9 -10 19 0 11 -10 41 -22 68 -11
26 -22 55 -24 63 -2 8 -8 16 -14 18 -5 2 -8 8 -5 13 3 4 -3 27 -14 50 -11 23
-18 45 -16 50 3 4 1 9 -5 11 -6 2 -12 12 -14 24 -2 11 -14 37 -25 57 -12 21
-21 46 -21 57 0 11 -5 20 -11 20 -6 0 -9 7 -5 15 3 8 2 15 -2 15 -6 0 -27 52
-35 86 -2 7 -9 19 -16 28 -7 9 -10 16 -6 16 4 0 0 11 -9 25 -9 14 -14 25 -11
25 2 0 -5 18 -16 40 -11 21 -18 44 -15 49 3 5 3 11 -1 13 -10 4 -52 97 -55
123 -2 11 -11 29 -21 40 -9 10 -16 24 -14 30 3 5 -1 19 -6 30 -6 11 -12 26
-13 34 -2 8 -7 17 -12 20 -6 3 -15 24 -21 46 -6 22 -20 57 -31 78 -14 26 -16
37 -8 37 9 0 8 3 -2 10 -8 5 -15 13 -15 17 -1 4 -11 30 -23 57 -12 27 -22 51
-22 55 -1 3 -9 24 -20 46 -11 22 -19 48 -20 57 0 9 -4 19 -9 22 -5 4 -15 29
-22 56 -7 28 -16 50 -20 50 -4 0 -15 21 -25 48 -9 26 -26 67 -37 92 -12 25
-22 50 -22 55 -1 6 -7 23 -13 38 -7 16 -12 31 -12 35 0 4 -11 28 -25 53 -13
26 -22 49 -19 51 2 3 -2 11 -10 17 -8 7 -12 19 -9 27 3 8 0 14 -6 14 -6 0 -11
9 -11 19 0 11 -6 32 -14 48 -26 52 -39 88 -37 101 1 6 -2 12 -7 12 -5 0 -14
19 -21 42 -7 23 -26 68 -42 101 -16 33 -26 63 -24 68 3 4 -1 14 -9 22 -8 8
-16 23 -18 33 -2 10 -5 21 -8 24 -9 8 -75 184 -72 193 1 4 -5 10 -13 13 -8 4
-15 17 -15 29 0 13 -5 27 -10 30 -6 4 -8 11 -4 16 3 5 0 17 -7 25 -7 9 -15 26
-16 37 -2 12 -8 24 -13 25 -6 2 -8 8 -4 13 3 5 0 9 -6 9 -7 0 -10 7 -6 15 3 8
1 15 -5 15 -6 0 -9 7 -5 15 3 8 1 15 -4 15 -8 0 -21 28 -25 55 -5 27 -18 55
-27 55 -6 0 -8 6 -5 14 3 7 1 18 -4 23 -5 5 -12 20 -14 33 -2 13 -8 26 -13 29
-5 3 -9 13 -9 21 0 8 -10 38 -23 65 -40 90 -48 110 -55 138 -4 15 -11 30 -16
33 -5 3 -9 14 -9 25 0 13 -4 18 -12 13 -8 -5 -9 -2 -5 9 3 10 2 17 -4 17 -6 0
-7 5 -3 11 3 6 2 14 -4 18 -7 4 -13 16 -15 28 -1 12 -9 29 -17 39 -13 16 -13
17 0 10 8 -4 6 0 -4 8 -11 9 -17 16 -13 16 4 0 0 14 -8 31 -9 17 -14 33 -11
36 3 3 -1 12 -9 19 -7 8 -23 43 -35 79 -12 36 -26 65 -31 65 -6 0 -8 4 -4 10
3 5 1 17 -4 27 -5 10 -15 33 -21 51 -7 17 -16 32 -20 32 -4 0 -7 6 -7 13 1 24
-16 77 -24 77 -5 0 -9 9 -9 19 0 11 -4 22 -9 26 -5 3 -12 18 -16 34 -3 16 -15
46 -26 67 -10 21 -19 43 -19 49 0 6 -9 28 -20 50 -11 22 -20 47 -20 57 0 10
-4 18 -9 18 -5 0 -13 15 -16 33 -4 17 -13 35 -19 40 -8 5 -7 10 4 17 13 8 12
10 -2 10 -10 0 -18 8 -18 18 0 9 -7 26 -15 36 -8 11 -15 26 -15 33 0 8 -9 32
-20 55 -11 22 -17 44 -15 49 3 4 0 13 -7 21 -12 12 -35 65 -43 98 -2 8 -4 17
-5 20 -1 3 -2 8 -1 13 0 4 -3 7 -9 7 -5 0 -10 6 -10 13 0 19 -24 67 -33 67 -5
0 -5 5 -2 10 4 6 1 18 -6 26 -7 9 -14 23 -15 32 -2 9 -7 25 -13 37 -17 37 -24
60 -22 74 1 7 -2 10 -8 6 -7 -3 -11 2 -11 15 0 11 -9 38 -20 60 -11 22 -20 46
-20 55 0 9 -4 13 -10 10 -5 -3 -10 -3 -11 2 -3 40 -9 67 -16 72 -4 3 -9 13
-11 21 -2 8 -10 31 -20 50 -9 19 -16 38 -17 42 0 3 -3 10 -7 14 -5 4 -8 15 -8
24 0 10 -7 23 -15 30 -13 10 -13 15 -3 21 9 6 8 10 -5 15 -9 3 -17 14 -17 23
0 9 -5 22 -12 29 -7 7 -9 12 -6 12 4 0 -4 24 -17 54 -13 30 -21 57 -18 60 4 3
1 6 -5 6 -6 0 -14 15 -17 33 -4 17 -12 35 -18 38 -5 4 -11 19 -13 34 -1 16 -9
42 -17 59 -54 112 -119 276 -110 276 4 0 -2 7 -13 15 -12 9 -14 14 -6 15 10 0
9 4 -2 16 -23 22 -38 53 -31 63 3 5 -2 16 -11 25 -8 9 -12 20 -9 26 3 5 1 10
-4 10 -6 0 -11 9 -11 19 0 11 -5 23 -10 26 -6 4 -7 11 -4 17 4 6 1 14 -5 18
-7 4 -13 13 -15 21 -9 49 -19 79 -27 79 -5 0 -9 7 -9 15 0 8 -5 15 -11 15 -5
0 -8 4 -5 9 3 5 -5 34 -19 66 -14 31 -23 61 -20 66 4 5 1 9 -4 9 -6 0 -11 9
-11 20 0 11 -5 20 -11 20 -5 0 -7 5 -4 10 3 6 2 10 -3 10 -5 0 -14 19 -21 42
-7 23 -20 52 -28 64 -8 13 -12 28 -9 33 4 5 2 12 -4 16 -6 4 -8 11 -5 16 4 5
1 9 -5 9 -7 0 -10 6 -7 14 3 8 3 16 -1 18 -15 7 -51 88 -39 89 9 0 9 2 0 6 -7
2 -13 8 -13 13 0 5 -5 21 -11 37 -6 15 -11 30 -12 33 0 3 -8 13 -18 23 -9 10
-16 30 -16 45 0 14 -6 28 -12 30 -6 2 -11 10 -11 18 0 9 -5 25 -12 37 -7 12
-13 31 -15 42 -2 10 -10 29 -17 40 -7 11 -17 35 -20 53 -4 17 -11 32 -14 32
-6 0 -24 44 -36 90 -3 8 -14 34 -25 57 -12 23 -21 48 -21 55 0 8 -7 24 -16 36
-8 12 -12 22 -7 22 4 0 4 4 -2 8 -5 4 -21 41 -35 82 -13 41 -30 82 -37 91 -7
8 -13 23 -13 31 0 9 -7 21 -15 28 -9 7 -14 19 -11 25 2 7 -2 22 -10 34 -8 11
-13 21 -9 21 3 0 -2 11 -11 25 -8 13 -13 28 -10 34 3 5 2 11 -4 13 -5 1 -11
13 -13 26 -2 13 -9 27 -17 32 -7 4 -13 22 -14 39 0 17 -3 31 -6 31 -4 0 -33
56 -35 70 -2 6 -20 49 -46 105 -10 22 -23 59 -30 82 -7 26 -16 40 -23 36 -6
-3 -8 -3 -5 1 4 4 -2 31 -13 59 -10 29 -20 57 -21 62 -1 6 -4 12 -7 15 -5 5
-24 51 -46 115 -8 22 -19 48 -24 57 -6 10 -10 24 -10 32 0 8 -7 21 -14 29 -8
8 -17 26 -18 40 -2 13 -10 32 -17 40 -7 9 -10 21 -6 26 3 6 -3 21 -15 33 -11
12 -18 28 -16 35 3 7 1 13 -4 13 -6 0 -10 9 -10 20 0 11 -5 20 -11 20 -5 0 -8
3 -6 8 3 4 -3 25 -14 46 -10 21 -16 42 -14 46 3 4 -2 13 -10 20 -8 7 -15 21
-15 31 0 11 -4 19 -10 19 -5 0 -10 8 -10 19 0 10 -12 45 -27 77 -15 33 -28 64
-28 69 -1 6 -9 26 -17 45 -33 72 -47 107 -78 193 -18 48 -36 87 -41 87 -5 0
-9 10 -9 23 0 12 -11 45 -25 72 -13 28 -25 58 -25 68 0 9 -4 17 -10 17 -5 0
-10 11 -10 25 0 14 -4 25 -8 25 -4 0 -8 10 -9 21 -1 12 -10 30 -19 40 -9 11
-13 19 -9 19 5 0 4 5 -2 11 -6 6 -9 17 -7 23 2 6 -4 21 -15 33 -11 11 -17 23
-14 27 3 3 1 12 -5 19 -7 8 -9 17 -5 20 3 4 1 7 -5 7 -7 0 -12 11 -12 24 0 13
-7 29 -15 36 -8 7 -15 21 -15 32 0 10 -11 40 -24 66 -13 26 -26 60 -30 77 -4
16 -11 32 -14 35 -4 3 -18 34 -31 70 -42 117 -46 128 -57 141 -6 8 -14 27 -18
44 -4 16 -19 54 -34 85 -14 30 -27 66 -28 79 -2 13 -8 27 -14 31 -7 4 -11 10
-11 14 1 14 -21 71 -50 127 -11 20 -19 41 -19 47 0 6 -14 41 -32 79 -17 37
-33 79 -35 93 -2 13 -8 29 -12 35 -5 5 -12 21 -16 35 -4 14 -21 53 -36 88 -16
34 -29 66 -29 71 0 5 -7 22 -15 37 -8 16 -15 36 -15 45 0 9 -7 22 -15 29 -8 7
-15 21 -15 31 0 11 -4 19 -10 19 -5 0 -7 6 -4 14 3 8 1 17 -5 21 -17 10 11 34
29 25 8 -4 40 -6 70 -4z"/>
</g>
</svg>
